<svg xmlns="http://www.w3.org/2000/svg" viewBox="0 0 246.24 74.5"><title>234Asset 11</title><g id="Layer_2" data-name="Layer 2"><g id="Layer_1-2" data-name="Layer 1"><rect width="246.24" height="74.5" rx="14.02" ry="14.02" style="fill:#4d7536"/><path d="M58.4,41.39a4.65,4.65,0,0,1-1.81,3.89,7.88,7.88,0,0,1-4.92,1.4,12.31,12.31,0,0,1-5.18-.87V43.69a13.47,13.47,0,0,0,2.54.77,13.31,13.31,0,0,0,2.72.29,5.46,5.46,0,0,0,3.31-.84,2.73,2.73,0,0,0,1.11-2.32A3,3,0,0,0,55.78,40a3.84,3.84,0,0,0-1.32-1.16,19.31,19.31,0,0,0-2.82-1.2,9,9,0,0,1-3.77-2.24A5,5,0,0,1,46.74,32a4.23,4.23,0,0,1,1.64-3.48,6.86,6.86,0,0,1,4.35-1.29,12.83,12.83,0,0,1,5.19,1l-.69,1.92a11.63,11.63,0,0,0-4.55-1A4.39,4.39,0,0,0,50,30,2.46,2.46,0,0,0,49,32a3.22,3.22,0,0,0,.37,1.61,3.41,3.41,0,0,0,1.22,1.15A14.8,14.8,0,0,0,53.18,36a10.48,10.48,0,0,1,4.1,2.28A4.5,4.5,0,0,1,58.4,41.39Z" style="fill:#fff"/><path d="M67.93,46.68a6.51,6.51,0,0,1-5-1.92,7.41,7.41,0,0,1-1.82-5.32A8.23,8.23,0,0,1,62.84,34a5.61,5.61,0,0,1,4.54-2,5.36,5.36,0,0,1,4.22,1.75,6.75,6.75,0,0,1,1.55,4.63v1.36H63.38a5.61,5.61,0,0,0,1.26,3.79A4.37,4.37,0,0,0,68,44.8a11.38,11.38,0,0,0,4.53-1v1.92a11.16,11.16,0,0,1-2.15.7A11.62,11.62,0,0,1,67.93,46.68Zm-.58-12.9a3.51,3.51,0,0,0-2.72,1.11A5.11,5.11,0,0,0,63.43,38h7.42a4.73,4.73,0,0,0-.91-3.11A3.19,3.19,0,0,0,67.35,33.78Z" style="fill:#fff"/><path d="M82.8,46.68a6.49,6.49,0,0,1-5-1.92A7.41,7.41,0,0,1,76,39.44,8.18,8.18,0,0,1,77.71,34a5.6,5.6,0,0,1,4.53-2,5.33,5.33,0,0,1,4.22,1.75A6.7,6.7,0,0,1,88,38.36v1.36H78.25a5.61,5.61,0,0,0,1.26,3.79,4.37,4.37,0,0,0,3.37,1.29,11.42,11.42,0,0,0,4.53-1v1.92a11,11,0,0,1-2.16.7A11.46,11.46,0,0,1,82.8,46.68Zm-.58-12.9a3.53,3.53,0,0,0-2.73,1.11A5.17,5.17,0,0,0,78.3,38h7.41a4.73,4.73,0,0,0-.9-3.11A3.2,3.2,0,0,0,82.22,33.78Z" style="fill:#fff"/><path d="M109.75,46.42V37.19a3.85,3.85,0,0,0-.72-2.54,2.81,2.81,0,0,0-2.25-.85,3.64,3.64,0,0,0-3,1.15,5.47,5.47,0,0,0-1,3.55v7.92h-2.15V37.19a3.85,3.85,0,0,0-.72-2.54,2.85,2.85,0,0,0-2.27-.85,3.55,3.55,0,0,0-3,1.21,6.61,6.61,0,0,0-.93,4v7.44H91.68V32.24h1.75l.35,1.94h.1a4.24,4.24,0,0,1,1.71-1.62A5.24,5.24,0,0,1,98.07,32q3.33,0,4.35,2.4h.1a4.6,4.6,0,0,1,1.84-1.76A5.71,5.71,0,0,1,107.1,32a4.83,4.83,0,0,1,3.61,1.23,5.58,5.58,0,0,1,1.19,4v9.25Z" style="fill:#fff"/><path d="M125.48,42.55A3.55,3.55,0,0,1,124,45.6a6.89,6.89,0,0,1-4.14,1.08,8.94,8.94,0,0,1-4.4-.9v-2a10.42,10.42,0,0,0,2.19.82,9.1,9.1,0,0,0,2.26.29,5.11,5.11,0,0,0,2.59-.53,1.85,1.85,0,0,0,.19-3.06,11.57,11.57,0,0,0-2.8-1.39,15.84,15.84,0,0,1-2.82-1.28,4,4,0,0,1-1.24-1.25,3.31,3.31,0,0,1-.41-1.67A3.18,3.18,0,0,1,116.83,33a6.56,6.56,0,0,1,3.87-1,11.35,11.35,0,0,1,4.48.93l-.77,1.75a10.18,10.18,0,0,0-3.86-.88,4.47,4.47,0,0,0-2.31.48,1.46,1.46,0,0,0-.77,1.31,1.6,1.6,0,0,0,.29,1,2.82,2.82,0,0,0,.94.76,21,21,0,0,0,2.48,1,9.27,9.27,0,0,1,3.41,1.85A3.26,3.26,0,0,1,125.48,42.55Z" style="fill:#fff"/><path d="M144.5,36.51h6.43v9.2a20,20,0,0,1-3.06.72,22.36,22.36,0,0,1-3.59.25,8.68,8.68,0,0,1-6.69-2.56q-2.4-2.55-2.4-7.16a10.81,10.81,0,0,1,1.19-5.17,8,8,0,0,1,3.41-3.39A11,11,0,0,1,145,27.23a14.26,14.26,0,0,1,5.64,1.11l-.85,1.94a12.67,12.67,0,0,0-4.93-1.08,7.08,7.08,0,0,0-5.4,2.05A8,8,0,0,0,137.52,37a8.2,8.2,0,0,0,1.87,5.81,7.21,7.21,0,0,0,5.5,2,16.4,16.4,0,0,0,3.84-.45V38.47H144.5Z" style="fill:#fff"/><path d="M167.39,39.31a7.85,7.85,0,0,1-1.75,5.42,6.14,6.14,0,0,1-4.83,2,6.34,6.34,0,0,1-3.37-.9,5.76,5.76,0,0,1-2.28-2.56,8.84,8.84,0,0,1-.8-3.91,7.79,7.79,0,0,1,1.73-5.4A6.13,6.13,0,0,1,160.9,32a6,6,0,0,1,4.73,2A7.77,7.77,0,0,1,167.39,39.31Zm-10.81,0a6.78,6.78,0,0,0,1.09,4.15,4.32,4.32,0,0,0,6.4,0,6.67,6.67,0,0,0,1.09-4.15,6.55,6.55,0,0,0-1.09-4.1,3.84,3.84,0,0,0-3.23-1.41,3.75,3.75,0,0,0-3.18,1.39A6.62,6.62,0,0,0,156.58,39.31Z" style="fill:#fff"/><path d="M183.39,39.31a7.85,7.85,0,0,1-1.74,5.42,6.17,6.17,0,0,1-4.83,2,6.37,6.37,0,0,1-3.38-.9,5.88,5.88,0,0,1-2.28-2.56,9,9,0,0,1-.8-3.91,7.79,7.79,0,0,1,1.74-5.4A6.12,6.12,0,0,1,176.91,32a6,6,0,0,1,4.73,2A7.77,7.77,0,0,1,183.39,39.31Zm-10.8,0a6.71,6.71,0,0,0,1.09,4.15,4.3,4.3,0,0,0,6.39,0,6.67,6.67,0,0,0,1.1-4.15,6.55,6.55,0,0,0-1.1-4.1,3.82,3.82,0,0,0-3.22-1.41,3.78,3.78,0,0,0-3.19,1.39A6.69,6.69,0,0,0,172.59,39.31Z" style="fill:#fff"/><path d="M196.81,44.52h-.11a5.07,5.07,0,0,1-4.46,2.16,5.25,5.25,0,0,1-4.32-1.91,8.29,8.29,0,0,1-1.55-5.4,8.54,8.54,0,0,1,1.55-5.45,5.76,5.76,0,0,1,8.75.15h.17l-.09-1-.05-1V26.28h2.14V46.42H197.1Zm-4.29.36a3.92,3.92,0,0,0,3.19-1.2,6.1,6.1,0,0,0,1-3.86v-.45a7.13,7.13,0,0,0-1-4.31,3.82,3.82,0,0,0-3.2-1.28,3.28,3.28,0,0,0-2.89,1.47,7.26,7.26,0,0,0-1,4.14,7,7,0,0,0,1,4.1A3.37,3.37,0,0,0,192.52,44.88Z" style="fill:#fff"/></g></g></svg>