<svg xmlns="http://www.w3.org/2000/svg" viewBox="0 0 194.53 97.5"><title>234Asset 4</title><g id="Layer_2" data-name="Layer 2"><g id="Layer_1-2" data-name="Layer 1"><path d="M191.17,0h0a3.35,3.35,0,0,1,3.13,4.57C183.15,33.24,169.17,69.2,159,95.37a3.33,3.33,0,0,1-3.12,2.13H3.36A3.35,3.35,0,0,1,.23,92.93c9.87-25.37,24-61.66,35.3-90.8A3.33,3.33,0,0,1,38.64,0Z" style="fill:#b43a3c"/><path d="M94.81,61.22H88.1l-7-21.7H81l-.08.63c-.42,2.82-.85,5.35-1.29,7.57l-2.85,13.5H71.39l6.06-28.68h7l6.68,21.13h.07c.16-1,.42-2.42.77-4.26s1.53-7.47,3.53-16.87h5.38Z" style="fill:#fff"/><path d="M122.42,47.57A18.32,18.32,0,0,1,121,54.9a11.14,11.14,0,0,1-4,5,10.83,10.83,0,0,1-6.2,1.75,8.21,8.21,0,0,1-6.11-2.3,8.34,8.34,0,0,1-2.28-6.13,18.64,18.64,0,0,1,1.4-7.45,11.27,11.27,0,0,1,4.05-5.06,10.77,10.77,0,0,1,6.2-1.8,8.08,8.08,0,0,1,6.08,2.32A8.8,8.8,0,0,1,122.42,47.57Zm-6,0q0-3.87-2.8-3.87A3.6,3.6,0,0,0,111,44.9a8.78,8.78,0,0,0-1.9,3.51,15.64,15.64,0,0,0-.74,4.77q0,3.63,2.94,3.63A3.62,3.62,0,0,0,114,55.6a8.05,8.05,0,0,0,1.84-3.35A16,16,0,0,0,116.47,47.57Z" style="fill:#fff"/></g></g></svg>