<svg xmlns="http://www.w3.org/2000/svg" viewBox="0 0 246.24 74.5"><title>234Asset 12</title><g id="Layer_2" data-name="Layer 2"><g id="Layer_1-2" data-name="Layer 1"><rect width="246.24" height="74.5" rx="14.02" ry="14.02" style="fill:#cea955"/><path d="M52.93,47.24h-2.2v-17h-6V28.32H58.92v1.95h-6Z" style="fill:#fff"/><path d="M71.15,47.24V38.06a3.7,3.7,0,0,0-.79-2.59,3.25,3.25,0,0,0-2.47-.85,4.07,4.07,0,0,0-3.27,1.22,6.19,6.19,0,0,0-1,4v7.42H61.45V27.1h2.14v6.1a13.13,13.13,0,0,1-.1,1.82h.13a4.35,4.35,0,0,1,1.8-1.61,5.94,5.94,0,0,1,2.68-.59A5.45,5.45,0,0,1,72,34.06,5.21,5.21,0,0,1,73.3,38v9.26Z" style="fill:#fff"/><path d="M77.53,29.21a1.44,1.44,0,0,1,.36-1.08,1.27,1.27,0,0,1,.91-.34,1.24,1.24,0,0,1,.89.35,1.71,1.71,0,0,1,0,2.15,1.3,1.3,0,0,1-1.8,0A1.44,1.44,0,0,1,77.53,29.21Zm2.33,18H77.71V33.06h2.15Z" style="fill:#fff"/><path d="M94.12,47.24V38.06a3.75,3.75,0,0,0-.79-2.59,3.25,3.25,0,0,0-2.47-.85,4.07,4.07,0,0,0-3.26,1.2,6.1,6.1,0,0,0-1,4v7.44H84.41V33.06h1.75L86.51,35h.1a4.45,4.45,0,0,1,1.85-1.63,6.1,6.1,0,0,1,2.66-.57A5.4,5.4,0,0,1,95,34,5.27,5.27,0,0,1,96.27,38v9.26Z" style="fill:#fff"/><path d="M102.8,40a25.41,25.41,0,0,1,1.69-2.07l4.58-4.85h2.55l-5.74,6L112,47.24h-2.61l-5-6.71-1.62,1.4v5.31h-2.12V27.1h2.12V37.78c0,.47,0,1.21-.1,2.2Z" style="fill:#fff"/><path d="M121.29,29.21a1.44,1.44,0,0,1,.36-1.08,1.27,1.27,0,0,1,.91-.34,1.24,1.24,0,0,1,.89.35,1.71,1.71,0,0,1,0,2.15,1.3,1.3,0,0,1-1.8,0A1.44,1.44,0,0,1,121.29,29.21Zm2.33,18h-2.15V33.06h2.15Z" style="fill:#fff"/><path d="M132.76,45.72a8,8,0,0,0,1.1-.08,8.27,8.27,0,0,0,.84-.18v1.65a4.45,4.45,0,0,1-1,.28,8.21,8.21,0,0,1-1.22.11q-4.12,0-4.12-4.34V34.72h-2v-1l2-.89.91-3h1.24v3.29h4.11v1.66h-4.11v8.35a2.87,2.87,0,0,0,.61,2A2.13,2.13,0,0,0,132.76,45.72Z" style="fill:#fff"/><path d="M161.16,37.75a10.4,10.4,0,0,1-2.3,7.14,8.06,8.06,0,0,1-6.39,2.61A8.21,8.21,0,0,1,146,44.94c-1.51-1.7-2.27-4.11-2.27-7.21s.76-5.47,2.28-7.17A8.25,8.25,0,0,1,152.5,28a8.05,8.05,0,0,1,6.37,2.59A10.45,10.45,0,0,1,161.16,37.75Zm-15.08,0a9,9,0,0,0,1.64,5.83,6.68,6.68,0,0,0,9.5,0,9.12,9.12,0,0,0,1.61-5.84,9.08,9.08,0,0,0-1.6-5.79,5.74,5.74,0,0,0-4.73-2,5.84,5.84,0,0,0-4.78,2A8.91,8.91,0,0,0,146.08,37.75Z" style="fill:#fff"/><path d="M168.16,47.24l-5.39-14.18h2.31l3,8.41a39.12,39.12,0,0,1,1.22,3.83h.1c.1-.46.4-1.41.9-2.84s1.64-4.57,3.4-9.4h2.3l-5.38,14.18Z" style="fill:#fff"/><path d="M184.32,47.5a6.49,6.49,0,0,1-5-1.92,7.39,7.39,0,0,1-1.82-5.32,8.23,8.23,0,0,1,1.69-5.45,5.6,5.6,0,0,1,4.53-2A5.33,5.33,0,0,1,188,34.55a6.7,6.7,0,0,1,1.55,4.63v1.35h-9.77a5.68,5.68,0,0,0,1.27,3.8,4.36,4.36,0,0,0,3.37,1.29,11.46,11.46,0,0,0,4.53-1v1.92a11.73,11.73,0,0,1-2.16.7A12.21,12.21,0,0,1,184.32,47.5Zm-.58-12.9A3.53,3.53,0,0,0,181,35.71a5.17,5.17,0,0,0-1.19,3.08h7.41a4.67,4.67,0,0,0-.91-3.11A3.17,3.17,0,0,0,183.74,34.6Z" style="fill:#fff"/><path d="M199.66,32.8a8.74,8.74,0,0,1,1.7.15l-.3,2a7.17,7.17,0,0,0-1.55-.19,3.77,3.77,0,0,0-2.94,1.4,5.07,5.07,0,0,0-1.23,3.48v7.61H193.2V33.06H195l.24,2.62h.11a6.19,6.19,0,0,1,1.9-2.13A4.28,4.28,0,0,1,199.66,32.8Z" style="fill:#fff"/></g></g></svg>