<svg xmlns="http://www.w3.org/2000/svg" viewBox="0 0 194.53 97.5"><title>234Asset 2</title><g id="Layer_2" data-name="Layer 2"><g id="Layer_1-2" data-name="Layer 1"><path d="M191.17,0h0a3.35,3.35,0,0,1,3.13,4.57C183.15,33.24,169.17,69.2,159,95.37a3.33,3.33,0,0,1-3.12,2.13H3.36A3.35,3.35,0,0,1,.23,92.93c9.87-25.37,24-61.66,35.3-90.8A3.33,3.33,0,0,1,38.64,0Z" style="fill:#4d7536"/><path d="M77.54,43,84.88,31.4h6.71L79.46,49.11l-2.33,11H71.18l2.34-11L68.89,31.4H75Z" style="fill:#fff"/><path d="M98.34,60.47a8.79,8.79,0,0,1-6.4-2.22A8.3,8.3,0,0,1,89.66,52a16.77,16.77,0,0,1,1.62-7.41,12.06,12.06,0,0,1,4.39-5.1,11.43,11.43,0,0,1,6.26-1.76,8.31,8.31,0,0,1,5.41,1.6,5.37,5.37,0,0,1,1.94,4.39A6.29,6.29,0,0,1,106,49.38c-2.19,1.32-5.31,2-9.36,2h-1l0,.41v.39a3.84,3.84,0,0,0,1,2.82,3.89,3.89,0,0,0,2.89,1,12.37,12.37,0,0,0,3.1-.37A20.51,20.51,0,0,0,106,54.33v4.45A16.81,16.81,0,0,1,98.34,60.47ZM101.55,42a4.5,4.5,0,0,0-3.25,1.57,7.54,7.54,0,0,0-2,3.83h.88a9.72,9.72,0,0,0,4.74-1,2.87,2.87,0,0,0,1.69-2.58C103.61,42.61,102.93,42,101.55,42Z" style="fill:#fff"/><path d="M126.55,52.84a6.87,6.87,0,0,1-2.44,5.66,10.53,10.53,0,0,1-6.8,2,20.57,20.57,0,0,1-3.66-.29,11.41,11.41,0,0,1-2.92-1V54.33A12.45,12.45,0,0,0,117,56.1a4.73,4.73,0,0,0,2.57-.64,2,2,0,0,0,1-1.74,2,2,0,0,0-.72-1.51,15.45,15.45,0,0,0-2.57-1.69A10.09,10.09,0,0,1,114,47.87a5.27,5.27,0,0,1-.94-3.13,6.38,6.38,0,0,1,2.17-5.17,9.28,9.28,0,0,1,6.19-1.84,13.74,13.74,0,0,1,7.12,1.87l-1.94,4.22a10,10,0,0,0-5.06-1.65,3,3,0,0,0-1.81.5A1.57,1.57,0,0,0,119,44a1.79,1.79,0,0,0,.63,1.35A12,12,0,0,0,122,46.82a9.9,9.9,0,0,1,3.49,2.68A5.45,5.45,0,0,1,126.55,52.84Z" style="fill:#fff"/></g></g></svg>