<svg xmlns="http://www.w3.org/2000/svg" viewBox="0 0 237.54 237.54"><title>234Asset 14</title><g id="Layer_2" data-name="Layer 2"><g id="Layer_1-2" data-name="Layer 1"><circle cx="118.77" cy="118.77" r="118.77" style="fill:#253462"/><path d="M118.77,206.26l-3.56-4.39c-33.29-41-50.88-81.2-50.88-116.15a54.44,54.44,0,1,1,108.88,0c0,35-17.59,75.11-50.88,116.15Zm0-165.81A45.32,45.32,0,0,0,73.5,85.72c0,31.58,15.63,68.1,45.27,105.91C148.41,153.83,164,117.3,164,85.72A45.32,45.32,0,0,0,118.77,40.45Zm0,80.34a30.08,30.08,0,1,1,30.08-30.08A30.11,30.11,0,0,1,118.77,120.79Zm0-51a20.91,20.91,0,1,0,20.9,20.9A20.93,20.93,0,0,0,118.77,69.81Z" style="fill:#fff"/></g></g></svg>