<svg xmlns="http://www.w3.org/2000/svg" viewBox="0 0 246.24 74.5"><title>234Asset 13</title><g id="Layer_2" data-name="Layer 2"><g id="Layer_1-2" data-name="Layer 1"><rect width="246.24" height="74.5" rx="14.02" ry="14.02" style="fill:#b43a3c"/><path d="M22.49,28.35a5.55,5.55,0,0,0-4.41,1.86,7.51,7.51,0,0,0-1.61,5.08A7.65,7.65,0,0,0,18,40.43a5.51,5.51,0,0,0,4.44,1.81,15,15,0,0,0,4-.64v1.73a12.48,12.48,0,0,1-4.35.66,7.36,7.36,0,0,1-5.77-2.27,9.36,9.36,0,0,1-2-6.45,10.19,10.19,0,0,1,1-4.58,7,7,0,0,1,2.83-3,8.54,8.54,0,0,1,4.34-1.06,10.49,10.49,0,0,1,4.66,1l-.84,1.69A9,9,0,0,0,22.49,28.35Z" style="fill:#fff"/><path d="M40.86,37.4a7,7,0,0,1-1.56,4.85A5.5,5.5,0,0,1,35,44a5.72,5.72,0,0,1-3-.8,5.3,5.3,0,0,1-2-2.29,8,8,0,0,1-.72-3.5,7,7,0,0,1,1.55-4.83,5.48,5.48,0,0,1,4.31-1.73,5.37,5.37,0,0,1,4.23,1.77A7,7,0,0,1,40.86,37.4Zm-9.67,0a6,6,0,0,0,1,3.71A3.39,3.39,0,0,0,35,42.38a3.38,3.38,0,0,0,2.86-1.27,6,6,0,0,0,1-3.71,5.88,5.88,0,0,0-1-3.67A3.42,3.42,0,0,0,35,32.47a3.39,3.39,0,0,0-2.85,1.24A5.94,5.94,0,0,0,31.19,37.4Z" style="fill:#fff"/><path d="M52.91,43.76V35.55a3.32,3.32,0,0,0-.71-2.32A2.87,2.87,0,0,0,50,32.47a3.65,3.65,0,0,0-2.92,1.08,5.46,5.46,0,0,0-.92,3.55v6.66H44.23V31.07h1.56l.31,1.74h.09a4,4,0,0,1,1.66-1.46,5.42,5.42,0,0,1,2.37-.51,4.84,4.84,0,0,1,3.45,1.1,4.73,4.73,0,0,1,1.16,3.54v8.28Z" style="fill:#fff"/><path d="M67,40.3A3.17,3.17,0,0,1,65.64,43a6.19,6.19,0,0,1-3.7,1,8.1,8.1,0,0,1-3.94-.8V41.41a9.76,9.76,0,0,0,2,.73,8.63,8.63,0,0,0,2,.26,4.57,4.57,0,0,0,2.31-.48,1.65,1.65,0,0,0,.17-2.73A10,10,0,0,0,62,38a13.5,13.5,0,0,1-2.52-1.16,3.56,3.56,0,0,1-1.11-1.11,3,3,0,0,1-.36-1.5,2.86,2.86,0,0,1,1.26-2.45,5.93,5.93,0,0,1,3.46-.89,10.25,10.25,0,0,1,4,.83L66,33.23a9.22,9.22,0,0,0-3.46-.78,3.93,3.93,0,0,0-2.06.43,1.31,1.31,0,0,0-.69,1.18,1.37,1.37,0,0,0,.26.86,2.54,2.54,0,0,0,.84.69,17.79,17.79,0,0,0,2.22.93,8.32,8.32,0,0,1,3.05,1.66A2.92,2.92,0,0,1,67,40.3Z" style="fill:#fff"/><path d="M69.93,27.63a1.28,1.28,0,0,1,.32-1,1.16,1.16,0,0,1,.81-.3,1.13,1.13,0,0,1,.8.31,1.27,1.27,0,0,1,.33,1,1.29,1.29,0,0,1-.33,1,1.17,1.17,0,0,1-1.61,0A1.29,1.29,0,0,1,69.93,27.63ZM72,43.76H70.09V31.07H72Z" style="fill:#fff"/><path d="M84.72,42.06h-.11a4.52,4.52,0,0,1-4,1.93,4.71,4.71,0,0,1-3.87-1.7,7.52,7.52,0,0,1-1.38-4.84,7.62,7.62,0,0,1,1.39-4.88,4.67,4.67,0,0,1,3.86-1.73,4.62,4.62,0,0,1,4,1.87h.15l-.08-.91,0-.89V25.74h1.93v18H85Zm-3.84.32a3.5,3.5,0,0,0,2.85-1.07,5.44,5.44,0,0,0,.88-3.46v-.4a6.36,6.36,0,0,0-.89-3.85,3.42,3.42,0,0,0-2.87-1.15,2.94,2.94,0,0,0-2.58,1.31,6.52,6.52,0,0,0-.9,3.71,6.31,6.31,0,0,0,.89,3.67A3,3,0,0,0,80.88,42.38Z" style="fill:#fff"/><path d="M96,44a5.82,5.82,0,0,1-4.44-1.72,6.63,6.63,0,0,1-1.63-4.75,7.36,7.36,0,0,1,1.52-4.88,5,5,0,0,1,4-1.8,4.79,4.79,0,0,1,3.78,1.57,6,6,0,0,1,1.39,4.13v1.22H91.9A5,5,0,0,0,93,41.15a3.89,3.89,0,0,0,3,1.16,10.2,10.2,0,0,0,4-.86v1.72a10.54,10.54,0,0,1-1.93.63A11.29,11.29,0,0,1,96,44Zm-.52-11.54a3.16,3.16,0,0,0-2.44,1,4.65,4.65,0,0,0-1.07,2.76h6.63a4.26,4.26,0,0,0-.8-2.79A2.89,2.89,0,0,0,95.45,32.45Z" style="fill:#fff"/><path d="M109.7,30.84a7.09,7.09,0,0,1,1.52.14L111,32.76a6.31,6.31,0,0,0-1.39-.17,3.35,3.35,0,0,0-2.63,1.25,4.55,4.55,0,0,0-1.1,3.11v6.81h-1.92V31.07h1.59l.22,2.35h.09a5.59,5.59,0,0,1,1.7-1.91A3.8,3.8,0,0,1,109.7,30.84Z" style="fill:#fff"/><path d="M130.67,43.76l-2.1-5.39h-6.79l-2.08,5.39h-2l6.69-17h1.66l6.65,17ZM128,36.6l-2-5.24c-.26-.67-.52-1.48-.79-2.44a21.42,21.42,0,0,1-.73,2.44l-2,5.24Z" style="fill:#fff"/><path d="M142.93,40.3A3.17,3.17,0,0,1,141.61,43a6.19,6.19,0,0,1-3.7,1,8.1,8.1,0,0,1-3.94-.8V41.41a9.63,9.63,0,0,0,2,.73,8.48,8.48,0,0,0,2,.26,4.57,4.57,0,0,0,2.31-.48,1.65,1.65,0,0,0,.17-2.73A10,10,0,0,0,137.93,38a13.5,13.5,0,0,1-2.52-1.16,3.56,3.56,0,0,1-1.11-1.11,3,3,0,0,1-.36-1.5,2.86,2.86,0,0,1,1.26-2.45,5.93,5.93,0,0,1,3.46-.89,10.25,10.25,0,0,1,4,.83L142,33.23a9.22,9.22,0,0,0-3.46-.78,4,4,0,0,0-2.06.43,1.31,1.31,0,0,0-.69,1.18,1.37,1.37,0,0,0,.26.86,2.54,2.54,0,0,0,.84.69,17.79,17.79,0,0,0,2.22.93,8.32,8.32,0,0,1,3,1.66A2.92,2.92,0,0,1,142.93,40.3Z" style="fill:#fff"/><path d="M154.24,40.3A3.17,3.17,0,0,1,152.92,43a6.19,6.19,0,0,1-3.7,1,8.1,8.1,0,0,1-3.94-.8V41.41a9.76,9.76,0,0,0,2,.73,8.63,8.63,0,0,0,2,.26,4.57,4.57,0,0,0,2.31-.48,1.65,1.65,0,0,0,.17-2.73A10,10,0,0,0,149.24,38a13.5,13.5,0,0,1-2.52-1.16,3.56,3.56,0,0,1-1.11-1.11,3,3,0,0,1-.36-1.5,2.86,2.86,0,0,1,1.26-2.45,5.93,5.93,0,0,1,3.46-.89,10.25,10.25,0,0,1,4,.83l-.69,1.56a9.22,9.22,0,0,0-3.46-.78,4,4,0,0,0-2.06.43,1.31,1.31,0,0,0-.69,1.18,1.37,1.37,0,0,0,.26.86,2.54,2.54,0,0,0,.84.69,17.79,17.79,0,0,0,2.22.93,8.32,8.32,0,0,1,3,1.66A2.92,2.92,0,0,1,154.24,40.3Z" style="fill:#fff"/><path d="M157.21,27.63a1.28,1.28,0,0,1,.32-1,1.16,1.16,0,0,1,.81-.3,1.13,1.13,0,0,1,.8.31,1.27,1.27,0,0,1,.34,1,1.3,1.3,0,0,1-.34,1,1.17,1.17,0,0,1-1.61,0A1.29,1.29,0,0,1,157.21,27.63Zm2.08,16.13h-1.92V31.07h1.92Z" style="fill:#fff"/><path d="M171.55,40.3A3.17,3.17,0,0,1,170.23,43a6.23,6.23,0,0,1-3.71,1,8.06,8.06,0,0,1-3.93-.8V41.41a9.54,9.54,0,0,0,2,.73,8.55,8.55,0,0,0,2,.26,4.61,4.61,0,0,0,2.32-.48,1.65,1.65,0,0,0,.16-2.73,9.71,9.71,0,0,0-2.5-1.24A13.5,13.5,0,0,1,164,36.79a3.35,3.35,0,0,1-1.11-1.11,3,3,0,0,1-.37-1.5,2.84,2.84,0,0,1,1.27-2.45,5.93,5.93,0,0,1,3.46-.89,10.2,10.2,0,0,1,4,.83l-.68,1.56a9.26,9.26,0,0,0-3.46-.78,3.93,3.93,0,0,0-2.06.43,1.3,1.3,0,0,0-.7,1.18,1.44,1.44,0,0,0,.26.86,2.77,2.77,0,0,0,.84.69,19.28,19.28,0,0,0,2.22.93,8.29,8.29,0,0,1,3.06,1.66A3,3,0,0,1,171.55,40.3Z" style="fill:#fff"/><path d="M178.77,42.4a6.19,6.19,0,0,0,1-.07,7.4,7.4,0,0,0,.76-.16v1.47a3.79,3.79,0,0,1-.92.25,7.73,7.73,0,0,1-1.1.1q-3.68,0-3.68-3.88V32.56H173v-.92l1.82-.8.81-2.71h1.11v2.94h3.68v1.49h-3.68V40a2.54,2.54,0,0,0,.55,1.76A1.88,1.88,0,0,0,178.77,42.4Z" style="fill:#fff"/><path d="M190.84,43.76,190.46,42h-.09a5.21,5.21,0,0,1-1.89,1.61,5.66,5.66,0,0,1-2.36.43,4.25,4.25,0,0,1-3-1,3.54,3.54,0,0,1-1.07-2.76c0-2.56,2-3.91,6.15-4l2.15-.07v-.79a3.19,3.19,0,0,0-.64-2.2,2.63,2.63,0,0,0-2.06-.71,8.32,8.32,0,0,0-3.58,1L183.52,32a8.83,8.83,0,0,1,2-.8,9.06,9.06,0,0,1,2.24-.29,4.84,4.84,0,0,1,3.36,1,4.2,4.2,0,0,1,1.1,3.23v8.66ZM186.5,42.4a3.92,3.92,0,0,0,2.82-1,3.67,3.67,0,0,0,1-2.76V37.52l-1.93.08a6.94,6.94,0,0,0-3.3.71,2.13,2.13,0,0,0-1,2,2,2,0,0,0,.63,1.59A2.63,2.63,0,0,0,186.5,42.4Z" style="fill:#fff"/><path d="M204.91,43.76V35.55a3.32,3.32,0,0,0-.71-2.32,2.87,2.87,0,0,0-2.21-.76,3.65,3.65,0,0,0-2.92,1.08,5.46,5.46,0,0,0-.92,3.55v6.66h-1.92V31.07h1.56l.31,1.74h.09a4,4,0,0,1,1.66-1.46,5.42,5.42,0,0,1,2.37-.51,4.84,4.84,0,0,1,3.45,1.1,4.73,4.73,0,0,1,1.16,3.54v8.28Z" style="fill:#fff"/><path d="M215.85,44a5.43,5.43,0,0,1-4.27-1.7,7,7,0,0,1-1.51-4.8,7.16,7.16,0,0,1,1.54-4.92A5.52,5.52,0,0,1,216,30.84a8.75,8.75,0,0,1,1.83.19,6.38,6.38,0,0,1,1.44.47l-.59,1.63a9.06,9.06,0,0,0-1.39-.42,6.36,6.36,0,0,0-1.33-.17q-3.87,0-3.87,4.93a5.86,5.86,0,0,0,.95,3.59,3.28,3.28,0,0,0,2.79,1.25,8.61,8.61,0,0,0,3.25-.68v1.7A6.9,6.9,0,0,1,215.85,44Z" style="fill:#fff"/><path d="M227.42,44A5.82,5.82,0,0,1,223,42.27a6.62,6.62,0,0,1-1.62-4.75,7.36,7.36,0,0,1,1.51-4.88,5,5,0,0,1,4.06-1.8,4.78,4.78,0,0,1,3.77,1.57,6,6,0,0,1,1.39,4.13v1.22h-8.74a5,5,0,0,0,1.13,3.39,3.9,3.9,0,0,0,3,1.16,10.2,10.2,0,0,0,4-.86v1.72a10.71,10.71,0,0,1-1.92.63A11.47,11.47,0,0,1,227.42,44Zm-.52-11.54a3.12,3.12,0,0,0-2.43,1,4.59,4.59,0,0,0-1.08,2.76H230a4.26,4.26,0,0,0-.81-2.79A2.88,2.88,0,0,0,226.9,32.45Z" style="fill:#fff"/></g></g></svg>