<svg xmlns="http://www.w3.org/2000/svg" viewBox="0 0 194.53 97.5"><title>234Asset 3</title><g id="Layer_2" data-name="Layer 2"><g id="Layer_1-2" data-name="Layer 1"><path d="M191.17,0h0a3.35,3.35,0,0,1,3.13,4.57C183.15,33.24,169.17,69.2,159,95.37a3.33,3.33,0,0,1-3.12,2.13H3.36A3.35,3.35,0,0,1,.23,92.93c9.87-25.37,24-61.66,35.3-90.8A3.33,3.33,0,0,1,38.64,0Z" style="fill:#cea955"/><path d="M64.06,51.6a8,8,0,0,1-2.9,6.49,12,12,0,0,1-7.87,2.38,12.48,12.48,0,0,1-7-1.76V53.33a14.61,14.61,0,0,0,7,2.12,6.12,6.12,0,0,0,3.43-.83A2.64,2.64,0,0,0,58,52.33a3.76,3.76,0,0,0-.27-1.48A4.18,4.18,0,0,0,57,49.66a21.52,21.52,0,0,0-2.44-2,13.15,13.15,0,0,1-3.8-3.84,8,8,0,0,1-1.1-4.11,8.44,8.44,0,0,1,1.22-4.52,8.16,8.16,0,0,1,3.46-3.1A11.53,11.53,0,0,1,59.49,31a15.86,15.86,0,0,1,7.79,1.95L65.14,37.5a13.28,13.28,0,0,0-5.65-1.45,4,4,0,0,0-2.67.88,2.92,2.92,0,0,0-1,2.33,3.46,3.46,0,0,0,.65,2.09,11.73,11.73,0,0,0,2.9,2.37,11.53,11.53,0,0,1,3.55,3.46A8.16,8.16,0,0,1,64.06,51.6Z" style="fill:#fff"/><path d="M88.52,46.42a18.37,18.37,0,0,1-1.38,7.34,11.11,11.11,0,0,1-4,5A10.85,10.85,0,0,1,77,60.47,7.9,7.9,0,0,1,68.55,52,18.82,18.82,0,0,1,70,44.59,11.3,11.3,0,0,1,74,39.53a10.74,10.74,0,0,1,6.2-1.8,8,8,0,0,1,6.08,2.32A8.78,8.78,0,0,1,88.52,46.42Zm-5.94,0q0-3.86-2.81-3.86a3.57,3.57,0,0,0-2.63,1.2,8.65,8.65,0,0,0-1.91,3.51A15.63,15.63,0,0,0,74.5,52q0,3.63,2.94,3.63a3.65,3.65,0,0,0,2.65-1.21,8.2,8.2,0,0,0,1.83-3.36A15.85,15.85,0,0,0,82.58,46.42Z" style="fill:#fff"/><path d="M106.85,37.73c2.86,0,4.58,1.49,5.14,4.48h.12a10.18,10.18,0,0,1,3.15-3.32,7.09,7.09,0,0,1,3.87-1.16,5,5,0,0,1,4.07,1.67,7,7,0,0,1,1.41,4.65,16.84,16.84,0,0,1-.46,3.53l-2.61,12.5h-5.9l2.71-12.81a10.33,10.33,0,0,0,.31-2.34c0-1.61-.64-2.41-1.92-2.41s-2.29.73-3.27,2.2A18.22,18.22,0,0,0,111.15,51l-1.89,9.12h-5.9l2.69-12.81a10.93,10.93,0,0,0,.31-2.34c0-1.61-.64-2.41-1.92-2.41s-2.3.75-3.28,2.24A18.31,18.31,0,0,0,98.85,51l-1.93,9.08H91l4.65-21.94h4.51l-.41,4.07h.11C101.79,39.22,104.12,37.73,106.85,37.73Z" style="fill:#fff"/><path d="M137.08,60.47a8.76,8.76,0,0,1-6.39-2.22A8.3,8.3,0,0,1,128.41,52,16.77,16.77,0,0,1,130,44.59a12.06,12.06,0,0,1,4.39-5.1,11.42,11.42,0,0,1,6.25-1.76,8.34,8.34,0,0,1,5.42,1.6A5.4,5.4,0,0,1,148,43.72a6.29,6.29,0,0,1-3.27,5.66c-2.19,1.32-5.31,2-9.36,2h-1l0,.41v.39a3.84,3.84,0,0,0,1,2.82,3.89,3.89,0,0,0,2.89,1,12.37,12.37,0,0,0,3.1-.37,20.86,20.86,0,0,0,3.38-1.32v4.45A16.82,16.82,0,0,1,137.08,60.47ZM140.3,42A4.54,4.54,0,0,0,137,43.56a7.62,7.62,0,0,0-2,3.83h.89a9.68,9.68,0,0,0,4.73-1,2.86,2.86,0,0,0,1.7-2.58C142.36,42.61,141.67,42,140.3,42Z" style="fill:#fff"/></g></g></svg>