<svg xmlns="http://www.w3.org/2000/svg" viewBox="0 0 237.54 237.54"><title>234Asset 15</title><g id="Layer_2" data-name="Layer 2"><g id="Layer_1-2" data-name="Layer 1"><circle cx="118.77" cy="118.77" r="118.77" style="fill:#253462"/><path d="M118.27,34.36a84.41,84.41,0,1,0,84.9,83.91A84.52,84.52,0,0,0,118.27,34.36Zm1,160.82c-11.47.06-23.64-16.77-29.27-44.11a169.9,169.9,0,0,1,58-.35C142.66,178.13,130.69,195.11,119.22,195.18Zm-.32-54.78a174.69,174.69,0,0,0-30.35,2.76A167.14,167.14,0,0,1,86.82,123l64-.38a168.91,168.91,0,0,1-1.49,20.21A174.86,174.86,0,0,0,118.9,140.4Zm-.58-98c11.65-.07,24,17.29,29.53,45.4a167.93,167.93,0,0,1-29.25,2.69,166.92,166.92,0,0,1-29.27-2.34C94.5,59.94,106.67,42.43,118.32,42.36Zm.33,56.09a174.24,174.24,0,0,0,30.51-2.83,170.08,170.08,0,0,1,1.56,19L86.77,115a167.52,167.52,0,0,1,1.34-19A173.24,173.24,0,0,0,118.65,98.45Zm40.07,16.08A175.72,175.72,0,0,0,157,94c11.32-2.75,21.28-6.67,29-11.51a76,76,0,0,1,9.09,31.88ZM78.77,115l-36.33.21a75.81,75.81,0,0,1,8.71-32C58.91,88,68.91,91.79,80.27,94.41A177.16,177.16,0,0,0,78.77,115Zm0,8a173.81,173.81,0,0,0,1.92,21.79c-11.13,2.68-20.93,6.5-28.63,11.26a76,76,0,0,1-9.62-32.84Zm80-.48,36.32-.21a75.74,75.74,0,0,1-9.23,33c-7.76-4.68-17.59-8.39-28.76-10.93A175.17,175.17,0,0,0,158.77,122.53Zm23-46.91C174.93,80,166,83.55,155.63,86.09c-3.51-17.68-9.74-32.17-17.62-41.26A76.68,76.68,0,0,1,181.8,75.62ZM98.66,45.06c-7.78,9.19-13.83,23.75-17.14,41.47-10.35-2.41-19.37-5.86-26.29-10.16A76.71,76.71,0,0,1,98.66,45.06ZM56.39,162.82c6.83-4.2,15.69-7.63,25.78-10.09,3.55,17.1,9.67,31.1,17.36,40A76.66,76.66,0,0,1,56.39,162.82Zm82.49,29.66c7.59-9,13.54-23,16.89-40.2,10.12,2.34,19,5.68,25.89,9.8A76.69,76.69,0,0,1,138.88,192.48Z" style="fill:#fff"/></g></g></svg>